<svg xmlns="http://www.w3.org/2000/svg" xmlns:xlink="http://www.w3.org/1999/xlink" xmlns:inkscape="http://www.inkscape.org/namespaces/inkscape" version="1.1" width="286.46" height="171.19" viewBox="0 0 286.46 171.19">
<path transform="matrix(.1,0,0,-.1,0,171.19)" d="M2864.57-.0117188H0V1711.91H2864.57V-.0117188" fill="#08486b"/>
<path transform="matrix(.1,0,0,-.1,0,171.19)" d="M363.551 230.398C363.551 219.648 356.219 212.328 345.957 212.328 335.695 212.328 328.367 219.648 328.367 230.398V504.512H264.852C254.594 504.512 246.777 511.34 246.777 521.121 246.777 531.371 254.594 538.219 264.852 538.219H427.066C437.324 538.219 445.141 531.371 445.141 521.121 445.141 511.34 437.324 504.512 427.066 504.512H363.551V230.398" fill="#d1d3d4"/>
<path transform="matrix(.1,0,0,-.1,0,171.19)" d="M634.723 345.719C634.723 390.66 620.555 410.211 588.309 410.211 565.836 410.211 550.688 398.48 544.336 376 542.383 368.191 541.895 364.281 541.895 345.719H634.723ZM541.895 294.898C542.383 255.328 550.199 246.531 585.375 246.039H651.336C662.086 246.039 669.902 239.199 669.902 228.941 669.902 219.16 662.086 212.328 651.336 212.328H584.887C528.699 212.328 510.137 230.891 508.18 288.551V359.879C508.18 408.262 542.383 444.41 588.309 444.41 617.621 444.41 644.984 428.281 658.172 402.391 665.016 389.191 668.926 371.121 668.926 350.602 668.926 317.859 665.504 312 645.961 312H541.895V294.898" fill="#d1d3d4"/>
<path transform="matrix(.1,0,0,-.1,0,171.19)" d="M892.703 444.41C902.477 444.41 910.781 436.59 910.781 427.801 910.781 419 901.984 410.699 892.215 410.699H852.641C821.371 409.719 811.602 399.461 812.09 366.719V290.012C811.602 257.281 821.371 247.012 852.641 246.039H893.191C902.477 246.039 910.781 237.738 910.781 228.941 910.781 218.68 902.965 212.328 889.285 212.328H849.711C801.824 212.328 778.379 237.738 778.379 287.57V369.16C778.379 419 801.824 444.41 849.711 444.41H892.703" fill="#d1d3d4"/>
<path transform="matrix(.1,0,0,-.1,0,171.19)" d="M1051.01 230.398C1051.01 219.648 1044.17 212.328 1033.91 212.328 1024.14 212.328 1017.3 219.648 1017.3 230.398V420.461C1017.3 439.52 1023.16 444.41 1046.61 444.41H1109.64C1162.89 443.43 1181.46 421.93 1182.44 360.359V230.398C1182.44 219.648 1175.6 212.328 1165.34 212.328 1155.57 212.328 1148.73 219.648 1148.73 230.398V357.43C1148.73 399.941 1139.44 410.699 1101.33 410.699H1051.01V230.398" fill="#d1d3d4"/>
<path transform="matrix(.1,0,0,-.1,0,171.19)" d="M1333.42 311.512C1333.42 269.98 1351.5 246.531 1383.74 246.531 1415.5 246.531 1433.58 269.98 1433.58 311.512V343.75C1433.58 387.73 1416.97 410.211 1383.74 410.211 1350.52 410.211 1333.42 387.73 1333.42 343.75V311.512ZM1299.71 354.512C1299.71 408.262 1333.42 444.41 1383.74 444.41 1433.58 444.41 1467.29 408.262 1467.29 354.512V302.23C1467.29 248.48 1433.58 212.328 1383.74 212.328 1333.42 212.328 1299.71 248.48 1299.71 302.23V354.512" fill="#d1d3d4"/>
<path transform="matrix(.1,0,0,-.1,0,171.19)" d="M1586.02 520.141C1586.02 530.879 1592.87 538.219 1602.64 538.219 1612.9 538.219 1619.74 530.879 1619.74 520.141V284.641C1619.74 257.281 1623.16 250.922 1644.66 240.672 1649.05 238.23 1651.49 233.82 1651.49 228.449 1651.49 218.68 1645.63 212.328 1636.35 212.328 1623.16 212.328 1606.54 221.129 1597.75 232.359 1589.44 243.602 1586.02 256.789 1586.02 279.262V520.141" fill="#d1d3d4"/>
<path transform="matrix(.1,0,0,-.1,0,171.19)" d="M1781.46 311.512C1781.46 269.98 1799.54 246.531 1831.79 246.531 1863.54 246.531 1881.62 269.98 1881.62 311.512V343.75C1881.62 387.73 1865.01 410.211 1831.79 410.211 1798.56 410.211 1781.46 387.73 1781.46 343.75V311.512ZM1747.75 354.512C1747.75 408.262 1781.46 444.41 1831.79 444.41 1881.62 444.41 1915.33 408.262 1915.33 354.512V302.23C1915.33 248.48 1881.62 212.328 1831.79 212.328 1781.46 212.328 1747.75 248.48 1747.75 302.23V354.512" fill="#d1d3d4"/>
<path transform="matrix(.1,0,0,-.1,0,171.19)" d="M2104.42 410.699C2074.62 411.18 2060.94 397.5 2060.94 366.719V290.012C2060.94 259.23 2074.62 245.551 2104.42 246.039H2158.65V410.699H2104.42ZM2103.93 212.328C2051.65 210.859 2026.25 235.77 2027.23 287.57V369.16C2027.23 421.93 2048.72 443.43 2101.98 444.41H2158.65C2187.48 443.922 2191.87 440.012 2192.36 415.578V190.352C2192.85 136.602 2169.4 113.148 2115.65 114.121H2044.81C2035.04 114.121 2026.74 121.941 2026.74 130.738 2026.74 140.988 2035.04 147.84 2046.28 147.84H2115.65C2151.33 148.32 2159.14 157.609 2158.65 197.672V212.328H2103.93" fill="#d1d3d4"/>
<path transform="matrix(.1,0,0,-.1,0,171.19)" d="M2326.73 426.328C2326.73 437.07 2333.57 444.41 2343.34 444.41 2353.6 444.41 2360.45 437.07 2360.45 426.328V230.398C2360.45 219.648 2353.6 212.328 2343.34 212.328 2333.57 212.328 2326.73 219.648 2326.73 230.398V426.328ZM2363.38 525.02C2363.38 514.27 2354.58 505.48 2343.83 505.48 2332.6 505.48 2323.8 514.27 2323.8 525.512 2323.8 536.262 2332.6 545.051 2343.83 545.051 2354.58 545.051 2363.38 536.262 2363.38 525.02" fill="#d1d3d4"/>
<path transform="matrix(.1,0,0,-.1,0,171.19)" d="M2608.16 312.969H2561.75C2528.03 312.969 2511.9 302.23 2511.9 280.238 2511.9 260.211 2528.51 247.5 2554.9 247.5H2608.16V312.969ZM2608.16 360.359C2608.16 397.5 2599.36 410.211 2572.98 410.699H2498.72C2487.97 410.699 2480.15 417.531 2480.15 427.309 2480.15 437.559 2487.97 444.41 2498.72 444.41H2567.12C2617.93 444.898 2641.87 420.949 2641.87 368.68V242.621C2641.39 219.16 2636.98 213.301 2619.88 212.328H2560.77C2534.87 212.328 2522.66 214.77 2509.46 222.59 2489.43 233.82 2475.75 257.77 2475.75 280.73 2475.75 304.18 2489.43 327.141 2508.97 337.891 2519.24 343.75 2534.38 346.691 2550.51 346.691H2608.16V360.359" fill="#d1d3d4"/>
<path transform="matrix(.1,0,0,-.1,0,171.19)" d="M623.141 727.648H694.551V797.863H623.141V727.648" fill="#ffffff"/>
<path transform="matrix(.1,0,0,-.1,0,171.19)" d="M694.551 684.262H623.141V614.148H694.551V684.262" fill="#ffffff"/>
<path transform="matrix(.1,0,0,-.1,0,171.19)" d="M300.27 846.551H341.57V805.246H300.27V846.551ZM276.941 898.242H318.25V856.934H276.941V898.242ZM287.988 1408.59H329.293V1367.29H287.988V1408.59ZM358.051 1303.5H399.355V1262.2H358.051V1303.5ZM359.098 1495.12H400.402V1453.81H359.098V1495.12ZM394.219 751.645H435.523V710.352H394.219V751.645ZM324.16 654.809H365.465V614.148H450.262V701.68H550.223V797.297H363.336V884.223H398.105V836.414H445.918V990.707H365.508V1068.95H293.793V1199.33H328.566V1155.87H411.141V1108.06H445.918V1251.49H552.402V1310.16H445.918V1357.97H591.52V1399.26H552.402V1444.89H443.738V1559.95H310.887C257.762 1559.95 214.297 1516.48 214.297 1463.35V710.75C214.297 657.621 257.762 614.148 310.887 614.148H324.16V654.809" fill="#ffffff"/>
<path transform="matrix(.1,0,0,-.1,0,171.19)" d="M529.789 985.176 570.473 985.469 570.172 1026.15 529.496 1025.85 529.789 985.176" fill="#ffffff"/>
<path transform="matrix(.1,0,0,-.1,0,171.19)" d="M699.855 1376.33H662.379V1338.84H699.855V1376.33" fill="#ffffff"/>
<path transform="matrix(.1,0,0,-.1,0,171.19)" d="M662.379 1207.86H699.855V1245.34H662.379V1207.86" fill="#ffffff"/>
<path transform="matrix(.1,0,0,-.1,0,171.19)" d="M552.895 1115.51H624.852V1187.47H552.895V1115.51" fill="#ffffff"/>
<path transform="matrix(.1,0,0,-.1,0,171.19)" d="M558.832 1512.02V1551.47H519.391V1512.02H558.832" fill="#ffffff"/>
<path transform="matrix(.1,0,0,-.1,0,171.19)" d="M623.387 1405.36H736.309C824.168 1405.36 878.656 1352.33 878.656 1266.92 878.656 1185.34 822.301 1128.41 741.508 1128.41H623.387V962.254H747.852C925.137 962.254 1058.85 1093.21 1058.85 1266.92 1058.85 1443.42 926.902 1571.52 745.25 1571.52H623.844L623.387 1405.36" fill="#ffffff"/>
<path transform="matrix(.1,0,0,-.1,0,171.19)" d="M1166.88 1047.46C1166.88 1084.95 1167.96 1094.59 1177.6 1112.8 1189.38 1136.37 1217.23 1152.44 1246.15 1152.44 1274 1152.44 1301.85 1136.37 1313.64 1112.8 1323.28 1094.59 1324.34 1086.03 1324.34 1047.46V699.34C1324.34 661.852 1323.28 652.199 1313.64 634 1301.85 610.422 1274 594.359 1246.15 594.359 1217.23 594.359 1189.38 610.422 1177.6 634 1167.96 652.199 1166.88 660.77 1166.88 699.34V1047.46ZM1338.27 1295.98C1338.27 1244.56 1297.57 1203.86 1247.22 1203.86 1195.8 1203.86 1155.1 1244.56 1155.1 1295.98 1155.1 1346.32 1196.88 1387.02 1248.29 1387.02 1297.57 1387.02 1338.27 1345.25 1338.27 1295.98" fill="#ffffff"/>
<path transform="matrix(.1,0,0,-.1,0,171.19)" d="M1587.83 699.34C1587.83 661.852 1586.76 652.199 1577.12 634 1565.34 610.422 1537.49 594.359 1509.64 594.359 1480.71 594.359 1452.87 610.422 1441.08 634 1431.44 652.199 1430.37 660.77 1430.37 699.34V1283.12C1430.37 1320.61 1431.44 1330.25 1441.08 1347.39 1452.87 1370.95 1480.71 1387.02 1509.64 1387.02 1537.49 1387.02 1565.34 1370.95 1577.12 1348.46 1586.76 1330.25 1587.83 1321.68 1587.83 1283.12V699.34" fill="#ffffff"/>
<path transform="matrix(.1,0,0,-.1,0,171.19)" d="M1809.54 875.008C1809.54 792.527 1852.38 737.895 1918.8 737.895 1983.07 737.895 2026.98 793.598 2026.98 873.934 2026.98 954.27 1983.07 1008.9 1917.72 1008.9 1853.46 1008.9 1809.54 954.27 1809.54 875.008ZM2188.73 687.551C2188.73 631.852 2156.6 594.359 2109.46 594.359 2071.97 594.359 2046.27 614.711 2030.19 656.488 1990.57 607.211 1958.43 591.148 1900.59 591.148 1842.74 591.148 1790.25 611.5 1745.27 651.141 1683.14 705.762 1652.08 780.746 1652.08 876.078 1652.08 962.84 1677.78 1028.18 1734.56 1083.89 1781.69 1131.02 1837.39 1155.65 1898.45 1155.65 1954.15 1155.65 1987.35 1139.58 2032.34 1093.52 2049.48 1135.3 2073.05 1152.44 2110.54 1152.44 2154.45 1152.44 2188.73 1117.09 2188.73 1072.1V687.551" fill="#ffffff"/>
<path transform="matrix(.1,0,0,-.1,0,171.19)" d="M2279.76 1062.46C2279.76 1117.09 2310.82 1152.44 2359.02 1152.44 2394.37 1152.44 2420.09 1134.23 2437.23 1096.74 2481.14 1140.66 2508.99 1155.65 2545.41 1155.65 2590.4 1155.65 2625.75 1119.23 2625.75 1074.24 2625.75 1036.75 2609.68 1021.76 2545.41 1002.47 2459.72 973.555 2435.08 949.988 2437.23 897.504V699.34C2437.23 661.852 2436.15 652.199 2426.51 634 2414.73 610.422 2386.87 594.359 2359.02 594.359 2330.11 594.359 2302.25 610.422 2290.47 634 2280.83 652.199 2279.76 660.77 2279.76 699.34V1062.46" fill="#ffffff"/>
</svg>
